<svg width="1080" height="1080" viewBox="0 0 1080 1080" fill="none" xmlns="http://www.w3.org/2000/svg">
<g id="Trekking">
<ellipse id="Ellipse 1" cx="477" cy="464.5" rx="477" ry="464.5" transform="matrix(-1 0 0 1 1015 105)" fill="url(#paint0_linear_1_2)"/>
<path id="Vector 24" d="M632.962 634.814C682.839 652.418 761.811 642.149 795.062 634.814L801 862L255.321 851.295C248.987 783.892 247.364 651.585 291.541 661.577C346.762 674.066 414.452 642.545 430.484 634.814C446.516 627.082 449.485 608.646 457.798 608.051C466.111 607.456 477.393 603.888 484.518 597.346C491.643 590.804 500.55 595.562 515.394 597.346C530.238 599.13 570.615 612.809 632.962 634.814Z" fill="#E272C2"/>
<path id="Intersect" fill-rule="evenodd" clip-rule="evenodd" d="M987.968 728.464C999.244 696.521 1007.07 662.994 1011 628.314C1003.24 622.679 989.525 614.119 981.465 614.119C970.201 614.119 949.453 607.581 934.632 599.259C934.5 599.185 934.367 599.111 934.234 599.036C919.441 590.728 898.893 579.188 880.092 594.504C861.121 609.958 810.138 632.545 799.467 633.14C788.797 633.734 645.333 698.522 631.105 712.788C619.723 724.2 475.784 1039.7 612.727 1034.95C613.518 1034.92 614.312 1034.89 615.109 1034.85C659.359 1028.04 701.574 1015.2 740.852 997.216C837.766 947.916 939.396 853.087 987.968 728.464Z" fill="#7959B5"/>
<path id="Intersect_2" fill-rule="evenodd" clip-rule="evenodd" d="M540.442 1035.26C695.812 1026.7 923.337 930.092 994 709.038C992.497 708.973 990.857 708.906 989.116 708.835C974.989 708.261 954.22 707.418 945.731 704.878C944.617 704.545 943.436 704.155 942.18 703.74C929.997 699.716 910.807 693.377 878.393 714.386C847.782 734.226 787.032 728.805 764.951 726.835C761.241 726.504 758.622 726.27 757.422 726.27C749.079 726.27 715.708 734.589 703.79 744.097C643.006 810.253 515.481 946.368 491.644 961.58C485.433 965.544 470.319 969.54 453.78 973.913C408.589 985.862 352.749 1000.63 438.751 1025.24C470.81 1031.81 504.052 1035.26 538.125 1035.26C538.898 1035.26 539.67 1035.26 540.442 1035.26Z" fill="#4D3E92"/>
<path id="Intersect_3" fill-rule="evenodd" clip-rule="evenodd" d="M156.343 850.216C243.452 962.235 381.608 1034.62 537.146 1034.62C537.916 1034.62 538.686 1034.61 539.455 1034.61C718.678 1021.87 491.986 745.827 491.986 745.827C474.159 737.904 430.901 721.939 400.477 721.464C362.545 720.871 341.757 704.317 309.81 678.878L309.562 678.68C281.783 656.56 266.028 657.598 255.744 658.275C254.148 658.381 252.685 658.477 251.329 658.477C241.227 658.477 185.965 649.564 148.529 629.36C118.746 613.287 77.4834 594.314 60.2752 586.702C60.3519 588.882 60.4441 591.057 60.5516 593.229C69.7354 695.298 104.405 781.653 156.343 850.216Z" fill="#874EAD"/>
<path id="Vector 14" d="M129.962 707.573C117.114 710.431 91.3008 706.382 80 704C160.296 908.248 295.906 1010.07 487.425 1029.72C678.944 1049.38 439.129 835.719 412.483 814.758C379.175 788.557 312.559 771.884 272.709 764.738C232.859 757.593 221.558 746.874 204.904 728.414C188.25 709.955 146.021 704 129.962 707.573Z" fill="#4D3E92"/>
<g id="Human">
<path id="Vector 1" d="M562.927 821.284H558.173C557.223 825.562 559.758 825.443 561.145 824.849C562.927 825.443 566.73 826.632 567.681 826.632C568.869 826.632 567.681 823.066 568.869 815.936C570.058 808.805 576.594 810.588 587.884 811.776C599.174 812.965 597.986 821.284 599.174 824.849C600.363 828.414 603.334 828.414 603.334 829.603V839.704C608.286 840.893 618.665 845.29 620.566 853.371C622.943 863.473 613.436 879.517 613.436 881.3V902.691L603.334 908.039H597.986C597.986 910.02 597.629 915.17 596.203 919.924C594.421 925.866 597.986 931.808 597.986 933.591C597.986 935.017 596.797 946.861 596.203 952.605C596.401 955.577 596.441 961.638 595.015 962.113C593.232 962.707 593.232 967.461 595.015 971.026C596.797 974.591 600.957 978.751 600.957 983.505C600.957 988.258 598.58 1015.59 600.957 1017.97C602.858 1019.87 602.836 1021.14 602.586 1021.53L603.334 1026.29L593.232 1034.61L587.884 1028.67V1021.53C588.478 1021.34 589.905 1020.35 590.855 1017.97C592.044 1015 591.45 1009.06 589.667 1002.52C587.884 995.983 586.102 987.664 586.102 981.722C586.102 976.968 582.932 972.611 581.348 971.026L578.377 963.301C576.99 964.292 574.217 965.084 574.217 960.33C573.623 946.069 569.464 941.91 567.681 935.373C566.255 930.144 563.918 933.194 562.927 935.373L544.507 952.605C544.11 952.209 543.574 952.368 542.148 951.417C540.365 950.229 536.187 952.605 536.8 959.142C537.569 967.361 537.376 976.374 536.187 981.722C534.999 987.07 533.811 1002.52 536.187 1005.49C538.564 1008.46 537.97 1015.59 537.376 1016.78C536.901 1017.73 536.386 1021.53 536.187 1023.32H520.738V1019.75C516.776 1019.55 507.903 1018.44 504.1 1015.59C500.297 1012.74 502.515 1011.23 504.1 1010.84C506.477 1011.04 512.538 1010.96 517.767 1009.06C522.996 1007.15 525.492 1002.72 526.086 1000.74L523.115 941.91L532.028 927.054L530.84 921.706L547.478 902.691C548.666 893.382 549.617 872.386 543.912 862.879C538.208 853.371 539.555 845.845 540.941 843.27C545.497 837.724 552.469 827.226 543.912 829.603C535.356 831.98 534.009 829.801 534.405 828.414C534.603 825.839 534.524 820.69 532.622 820.69C530.721 820.69 530.245 819.897 530.245 819.501L532.622 810.588C532.028 810.192 530.364 809.162 528.463 808.211C526.086 807.023 528.463 805.24 530.245 804.646C532.028 804.051 535.593 798.109 539.159 795.732C548.666 789.077 557.777 796.129 561.145 800.486C560.946 805.438 561.026 815.817 562.927 817.718C564.829 819.62 563.719 820.888 562.927 821.284Z" fill="#1E1E1E"/>
<path id="Vector 2" d="M584.657 530.252C585.608 527.875 585.053 525.696 584.657 524.904C584.261 524.904 582.994 525.142 581.092 526.092C578.715 527.281 581.092 530.252 581.686 533.223C582.28 536.194 583.469 533.223 584.657 530.252L584.657 530.252Z" fill="#B066DD"/>
</g>
<g id="Clouds">
<path id="Vector 25" d="M636 401H25C35.1041 394.448 90.9737 387.301 100.483 387.896C109.993 388.492 117.72 385.514 121.286 373.601C124.852 361.689 139.711 366.454 140.305 364.071C140.9 361.689 143.872 354.541 155.164 355.137C166.457 355.732 165.268 352.159 168.835 343.82C187.26 315.23 243.724 343.82 249.073 340.842C254.422 337.864 273.442 343.82 283.546 343.82C293.65 343.82 331.689 370.623 354.869 366.454C378.049 362.284 402.417 378.962 432.135 387.301C455.91 393.972 577.951 399.213 636 401Z" fill="#C8BCF3"/>
<path id="Vector 26" d="M740 184H296C303.342 179.227 343.942 174.019 350.852 174.453C357.763 174.887 363.377 172.717 365.969 164.038C368.56 155.359 379.358 158.831 379.79 157.095C380.222 155.359 382.381 150.151 390.588 150.585C398.794 151.019 397.93 148.416 400.521 142.34C413.911 121.51 454.942 142.34 458.829 140.17C462.716 138.001 476.537 142.34 483.879 142.34C491.222 142.34 518.864 161.868 535.708 158.831C552.553 155.793 570.261 167.944 591.856 174.019C609.132 178.879 697.817 182.698 740 184Z" fill="#C8BCF3"/>
<path id="Vector 27" d="M454 309H1022C1012.61 302.916 960.669 296.279 951.829 296.832C942.988 297.385 935.805 294.62 932.49 283.558C929.175 272.497 915.362 276.921 914.809 274.709C914.257 272.497 911.494 265.86 900.996 266.413C890.498 266.966 891.603 263.647 888.288 255.904C871.16 229.356 818.669 255.904 813.697 253.139C808.724 250.373 791.043 255.904 781.65 255.904C772.257 255.904 736.895 280.793 715.346 276.921C693.798 273.05 671.144 288.536 643.518 296.279C621.416 302.474 507.964 307.341 454 309Z" fill="#C8BCF3"/>
<path id="Vector 28" d="M608 479H1000C993.518 474.788 957.673 470.193 951.572 470.576C945.471 470.959 940.514 469.045 938.226 461.387C935.938 453.728 926.405 456.792 926.023 455.26C925.642 453.728 923.735 449.134 916.49 449.517C909.245 449.899 910.008 447.602 907.72 442.241C895.899 423.862 859.673 442.241 856.241 440.327C852.809 438.412 840.607 442.241 834.125 442.241C827.642 442.241 803.237 459.472 788.366 456.792C773.494 454.111 757.86 464.833 738.794 470.193C723.541 474.482 645.243 477.851 608 479Z" fill="#C8BCF3"/>
</g>
</g>
<defs>
<linearGradient id="paint0_linear_1_2" x1="477" y1="-33" x2="477" y2="484.5" gradientUnits="userSpaceOnUse">
<stop stop-color="#5955C3"/>
<stop offset="1" stop-color="#B968E0"/>
</linearGradient>
</defs>
</svg>
