<svg width="480" height="360" viewBox="0 0 480 360" fill="none" xmlns="http://www.w3.org/2000/svg">
<g id="Frame 1" clip-path="url(#clip0_2_2)">
<rect width="480" height="360" fill="white"/>
<rect id="Rectangle 1" width="480" height="360" fill="url(#paint0_linear_2_2)"/>
<circle id="sun" cx="336.5" cy="118.5" r="57.5" fill="#FFCA63"/>
<g id="montains">
<path id="Vector 1" d="M51 52.4C-20.5 47.4 -59 57.4 -59 57.4L-69 435.9L639.5 443.4V370.9C639.5 370.9 602.5 274.9 567.5 268.9C532.5 262.9 501.161 222.944 483 202.551C465.5 182.9 449.504 197.026 402.5 179.4C342.5 156.9 318 157.9 260 193.9C218.268 219.803 204 179.4 199 141.9C194 104.4 183.5 102.9 148 88.9C112.5 74.9 122.5 57.4 51 52.4Z" fill="#F08282"/>
<path id="Vector 3" d="M-252 11.4C-323.5 6.4 -362 16.4 -362 16.4L-372 394.9L336.5 402.4V329.9C336.5 329.9 324.5 227.9 264.5 227.9C226.757 227.9 220.199 214.261 190.5 187.5C172.986 171.719 151.99 134.357 99.5 138.4C28.7065 143.853 -92.8161 184.779 -104 100.9C-109 63.4 -119.5 61.9 -155 47.9C-190.5 33.9 -180.5 16.4 -252 11.4Z" fill="#FFB885"/>
<path id="Vector 2" d="M651.5 77.4C723 72.4 761.5 82.4 761.5 82.4L771.5 460.9L63 468.4V395.9C63 395.9 75 293.9 135 293.9C172.743 293.9 179.301 280.261 209 253.5C226.514 237.719 247.51 200.357 300 204.4C370.794 209.853 492.316 250.779 503.5 166.9C508.5 129.4 519 127.9 554.5 113.9C590 99.9 580 82.4 651.5 77.4Z" fill="#FFF385"/>
</g>
<g id="lake">
<rect id="lake_2" y="249" width="480" height="111" fill="url(#paint1_linear_2_2)"/>
<path id="Vector 4" d="M45 452C-26.5 457 -65 447 -65 447L-70 257.75C48.9146 253.56 519.221 257.75 519.221 257.75C502.033 272.187 487.369 290.206 477 301.849C459.5 321.5 443.504 307.374 396.5 325C336.5 347.5 312 346.5 254 310.5C212.268 284.597 198 325 193 362.5C188 400 177.5 401.5 142 415.5C106.5 429.5 116.5 447 45 452Z" fill="#F8C1BE"/>
<path id="Vector 4_2" d="M117.5 340C46.7065 334.547 -74.8161 293.621 -86 377.5C-114.677 592.576 -344.796 431.865 -349.72 245.5L213.5 249L232.096 268.888C225.438 274.813 218.204 282.156 208.5 290.9C190.986 306.682 169.99 344.043 117.5 340Z" fill="#FFDCAA"/>
<path id="Vector 4_3" d="M652.5 422C724 427 762.5 417 762.5 417L766.846 252.5L213.236 249C230.18 266.067 251.698 298.798 301 295C355.63 290.792 440.468 265.46 481.5 292.656C493.641 300.703 501.946 313.348 504.5 332.5C509.5 370 520 371.5 555.5 385.5C591 399.5 581 417 652.5 422Z" fill="#FFF9AA"/>
</g>
<rect id="ground" y="242" width="480" height="14" fill="url(#paint2_linear_2_2)"/>
</g>
<defs>
<linearGradient id="paint0_linear_2_2" x1="240" y1="0" x2="240" y2="360" gradientUnits="userSpaceOnUse">
<stop stop-color="white"/>
<stop offset="1" stop-color="#FFE4BC"/>
</linearGradient>
<linearGradient id="paint1_linear_2_2" x1="240" y1="249" x2="240" y2="360" gradientUnits="userSpaceOnUse">
<stop stop-color="#FEFFBF"/>
<stop offset="1" stop-color="white"/>
</linearGradient>
<linearGradient id="paint2_linear_2_2" x1="240" y1="242" x2="240" y2="256" gradientUnits="userSpaceOnUse">
<stop stop-color="#D2A9A9"/>
<stop offset="0.5" stop-color="#D3AAAA"/>
<stop offset="0.5001" stop-color="#F7C9C9"/>
<stop offset="1" stop-color="#F9CBCB"/>
</linearGradient>
<clipPath id="clip0_2_2">
<rect width="480" height="360" fill="white"/>
</clipPath>
</defs>
</svg>
